#tb 0: 1/25
0,          0,          0,        1,   152064, 0xae8c985d
0,          1,          1,        1,   152064, 0x489e1535
0,          2,          2,        1,   152064, 0x01a83b2b
0,          3,          3,        1,   152064, 0x3870ffd6
0,          4,          4,        1,   152064, 0x3d5b0cc4
